<svg width="100" height="100" viewBox="0 0 100 100" fill="none" xmlns="http://www.w3.org/2000/svg">
  <path d="M50 10C50 10 20 20 20 50C20 70 35 85 50 90C65 85 80 70 80 50C80 20 50 10 50 10Z" fill="#dab390" opacity="0.6"/>
  <path d="M50 10C50 10 30 25 30 50C30 65 40 77 50 80C60 77 70 65 70 50C70 25 50 10 50 10Z" fill="#b77232" opacity="0.8"/>
  <path d="M50 15L50 75" stroke="#163f36" stroke-width="2" stroke-linecap="round"/>
  <path d="M50 30C50 30 40 35 40 45" stroke="#163f36" stroke-width="1.5" stroke-linecap="round" opacity="0.6"/>
  <path d="M50 30C50 30 60 35 60 45" stroke="#163f36" stroke-width="1.5" stroke-linecap="round" opacity="0.6"/>
  <path d="M50 45C50 45 40 50 40 60" stroke="#163f36" stroke-width="1.5" stroke-linecap="round" opacity="0.6"/>
  <path d="M50 45C50 45 60 50 60 60" stroke="#163f36" stroke-width="1.5" stroke-linecap="round" opacity="0.6"/>
</svg>
